<svg width="40" height="41" viewBox="0 0 40 41" fill="none" xmlns="http://www.w3.org/2000/svg">
<path d="M31.6662 23.431C34.1496 20.9977 36.6662 18.081 36.6662 14.2643C36.6662 11.8332 35.7004 9.50159 33.9814 7.78251C32.2623 6.06343 29.9307 5.09766 27.4996 5.09766C24.5662 5.09766 22.4996 5.93099 19.9996 8.43099C17.4996 5.93099 15.4329 5.09766 12.4996 5.09766C10.0684 5.09766 7.73682 6.06343 6.01774 7.78251C4.29866 9.50159 3.33289 11.8332 3.33289 14.2643C3.33289 18.0977 5.83289 21.0143 8.33289 23.431L18.5853 33.6834C19.3664 34.4645 20.6327 34.4645 21.4138 33.6834L31.6662 23.431Z" stroke="white" stroke-width="3.33333" stroke-linecap="round" stroke-linejoin="round"/>
<path d="M31.6662 23.431C34.1496 20.9977 36.6662 18.081 36.6662 14.2643C36.6662 11.8332 35.7004 9.50159 33.9814 7.78251C32.2623 6.06343 29.9307 5.09766 27.4996 5.09766C24.5662 5.09766 22.4996 5.93099 19.9996 8.43099C17.4996 5.93099 15.4329 5.09766 12.4996 5.09766C10.0684 5.09766 7.73682 6.06343 6.01774 7.78251C4.29866 9.50159 3.33289 11.8332 3.33289 14.2643C3.33289 18.0977 5.83289 21.0143 8.33289 23.431L18.5853 33.6834C19.3664 34.4645 20.6327 34.4645 21.4138 33.6834L31.6662 23.431Z" fill="#E85750"/>
<circle opacity="0.3" cx="12.4997" cy="13.9323" r="5.16667" fill="white"/>
</svg>
